G04 Layer: TopLayer*
G04 EasyEDA v6.2.41, 2019-09-03T13:48:55+02:00*
G04 4dfbed0a4eda46c7a6514823fcc72b66,879760294d1340eaa32df08d3cb52a74,10*
G04 Gerber Generator version 0.2*
G04 Scale: 100 percent, Rotated: No, Reflected: No *
G04 Dimensions in inches *
G04 leading zeros omitted , absolute positions ,2 integer and 4 decimal *
%FSLAX24Y24*%
%MOIN*%
G90*
G70D02*

%ADD11C,0.012000*%
%ADD12C,0.024000*%
%ADD13R,0.060000X0.060000*%
%ADD14C,0.060000*%
%ADD15C,0.074000*%
%ADD16C,0.118110*%
%ADD17C,0.078740*%
%ADD18C,0.065000*%
%ADD19R,0.062000X0.062000*%
%ADD20C,0.062000*%

%LPD*%
G54D11*
G01X7280Y713D02*
G01X4721Y713D01*
G01X20000Y11100D02*
G01X20000Y9800D01*
G01X19397Y9198D01*
G01X4000Y5486D02*
G01X3280Y5486D01*
G01X4721Y5486D02*
G01X4000Y5486D01*
G01X4000Y2486D02*
G01X4000Y5486D01*
G01X4000Y2486D02*
G01X4721Y2486D01*
G01X2000Y2100D02*
G01X2386Y2486D01*
G01X4000Y2486D01*
G01X4721Y8486D02*
G01X2386Y8486D01*
G01X2000Y8100D01*
G01X4721Y2486D02*
G01X7280Y2486D01*
G01X721Y5486D02*
G01X3280Y5486D01*
G01X7280Y5486D02*
G01X4721Y5486D01*
G01X8721Y5486D02*
G01X7280Y5486D01*
G01X11280Y5486D02*
G01X8721Y5486D01*
G01X23500Y2600D02*
G01X22650Y1750D01*
G01X8015Y1750D01*
G01X7280Y2486D01*
G01X29500Y12600D02*
G01X28500Y12600D01*
G01X16000Y11100D02*
G01X12500Y11100D01*
G01X7280Y6713D02*
G01X4721Y6713D01*
G01X3280Y3713D02*
G01X721Y3713D01*
G01X7280Y3713D02*
G01X4721Y3713D01*
G01X11280Y3713D02*
G01X8721Y3713D01*
G01X30500Y12600D02*
G01X29913Y13186D01*
G01X6602Y13186D01*
G01X5015Y11600D01*
G01X2000Y7100D02*
G01X3000Y6100D01*
G01X12000Y6100D01*
G01X13500Y4600D01*
G01X2984Y11600D02*
G01X4484Y10100D01*
G01X9500Y10100D01*
G01X19000Y8100D02*
G01X16000Y8100D01*
G01X20000Y8100D02*
G01X19000Y8100D01*
G01X21000Y8100D02*
G01X20000Y8100D01*
G01X22000Y8100D02*
G01X21000Y8100D01*
G01X23000Y8100D02*
G01X22000Y8100D01*
G54D13*
G01X9500Y11100D03*
G54D14*
G01X9500Y10100D03*
G01X12500Y10100D03*
G01X12500Y11100D03*
G54D15*
G01X9500Y12600D03*
G01X12500Y12600D03*
G54D16*
G01X2984Y11600D03*
G01X1015Y11600D03*
G54D15*
G01X16000Y11100D03*
G01X16000Y8100D03*
G54D17*
G01X4720Y6714D03*
G01X7279Y6714D03*
G01X7279Y8485D03*
G01X4720Y8485D03*
G01X4720Y714D03*
G01X7279Y714D03*
G01X7279Y2485D03*
G01X4720Y2485D03*
G01X720Y3714D03*
G01X3279Y3714D03*
G01X3279Y5485D03*
G01X720Y5485D03*
G01X4720Y3714D03*
G01X7279Y3714D03*
G01X7279Y5485D03*
G01X4720Y5485D03*
G01X8720Y3714D03*
G01X11279Y3714D03*
G01X11279Y5485D03*
G01X8720Y5485D03*
G54D15*
G01X19000Y11100D03*
G01X19000Y8100D03*
G01X20000Y11100D03*
G01X20000Y8100D03*
G01X21000Y11100D03*
G01X21000Y8100D03*
G01X22000Y11100D03*
G01X22000Y8100D03*
G01X23000Y11100D03*
G01X23000Y8100D03*
G01X13500Y4600D03*
G01X16500Y4600D03*
G01X13500Y5600D03*
G01X16500Y5600D03*
G54D18*
G01X2000Y7100D03*
G01X2000Y8100D03*
G01X2000Y1100D03*
G01X2000Y2100D03*
G54D16*
G01X6984Y11600D03*
G01X5015Y11600D03*
G54D19*
G01X15500Y12600D03*
G54D20*
G01X16500Y12600D03*
G01X17500Y12600D03*
G01X18500Y12600D03*
G01X19500Y12600D03*
G01X20500Y12600D03*
G01X21500Y12600D03*
G01X22500Y12600D03*
G01X23500Y12600D03*
G01X24500Y12600D03*
G01X25500Y12600D03*
G01X26500Y12600D03*
G01X27500Y12600D03*
G01X28500Y12600D03*
G01X29500Y12600D03*
G01X30500Y12600D03*
G01X24500Y2600D03*
G01X23500Y2600D03*
G01X22500Y2600D03*
G01X21500Y2600D03*
G01X20500Y2600D03*
G01X19500Y2600D03*
G01X18500Y2600D03*
G01X17500Y2600D03*
G01X16500Y2600D03*
G54D19*
G01X15500Y2600D03*
G54D12*
G01X19397Y9198D03*
M00*
M02*
