G04 Layer: TopSolderMaskLayer*
G04 EasyEDA v6.2.41, 2019-09-03T13:48:55+02:00*
G04 4dfbed0a4eda46c7a6514823fcc72b66,879760294d1340eaa32df08d3cb52a74,10*
G04 Gerber Generator version 0.2*
G04 Scale: 100 percent, Rotated: No, Reflected: No *
G04 Dimensions in inches *
G04 leading zeros omitted , absolute positions ,2 integer and 4 decimal *
%FSLAX24Y24*%
%MOIN*%
G90*
G70D02*

%ADD25C,0.068000*%
%ADD26C,0.082000*%
%ADD27C,0.126110*%
%ADD28C,0.086740*%
%ADD29C,0.073000*%
%ADD31C,0.070000*%

%LPD*%
G36*
G01X9160Y10759D02*
G01X9160Y11440D01*
G01X9839Y11440D01*
G01X9839Y10759D01*
G01X9160Y10759D01*
G37*
G54D25*
G01X9500Y10100D03*
G01X12500Y10100D03*
G01X12500Y11100D03*
G54D26*
G01X9500Y12600D03*
G01X12500Y12600D03*
G54D27*
G01X2984Y11600D03*
G01X1015Y11600D03*
G54D26*
G01X16000Y11100D03*
G01X16000Y8100D03*
G54D28*
G01X4720Y6714D03*
G01X7279Y6714D03*
G01X7279Y8485D03*
G01X4720Y8485D03*
G01X4720Y714D03*
G01X7279Y714D03*
G01X7279Y2485D03*
G01X4720Y2485D03*
G01X720Y3714D03*
G01X3279Y3714D03*
G01X3279Y5485D03*
G01X720Y5485D03*
G01X4720Y3714D03*
G01X7279Y3714D03*
G01X7279Y5485D03*
G01X4720Y5485D03*
G01X8720Y3714D03*
G01X11279Y3714D03*
G01X11279Y5485D03*
G01X8720Y5485D03*
G54D26*
G01X19000Y11100D03*
G01X19000Y8100D03*
G01X20000Y11100D03*
G01X20000Y8100D03*
G01X21000Y11100D03*
G01X21000Y8100D03*
G01X22000Y11100D03*
G01X22000Y8100D03*
G01X23000Y11100D03*
G01X23000Y8100D03*
G01X13500Y4600D03*
G01X16500Y4600D03*
G01X13500Y5600D03*
G01X16500Y5600D03*
G54D29*
G01X2000Y7100D03*
G01X2000Y8100D03*
G01X2000Y1100D03*
G01X2000Y2100D03*
G54D27*
G01X6984Y11600D03*
G01X5015Y11600D03*
G36*
G01X15150Y12250D02*
G01X15150Y12950D01*
G01X15850Y12950D01*
G01X15850Y12250D01*
G01X15150Y12250D01*
G37*
G54D31*
G01X16500Y12600D03*
G01X17500Y12600D03*
G01X18500Y12600D03*
G01X19500Y12600D03*
G01X20500Y12600D03*
G01X21500Y12600D03*
G01X22500Y12600D03*
G01X23500Y12600D03*
G01X24500Y12600D03*
G01X25500Y12600D03*
G01X26500Y12600D03*
G01X27500Y12600D03*
G01X28500Y12600D03*
G01X29500Y12600D03*
G01X30500Y12600D03*
G01X24500Y2600D03*
G01X23500Y2600D03*
G01X22500Y2600D03*
G01X21500Y2600D03*
G01X20500Y2600D03*
G01X19500Y2600D03*
G01X18500Y2600D03*
G01X17500Y2600D03*
G01X16500Y2600D03*
G36*
G01X15150Y2250D02*
G01X15150Y2950D01*
G01X15850Y2950D01*
G01X15850Y2250D01*
G01X15150Y2250D01*
G37*
M00*
M02*
