;Layer: Drill PTH
;EasyEDA v6.2.41, 2019-09-03T13:48:55+02:00
;4dfbed0a4eda46c7a6514823fcc72b66,879760294d1340eaa32df08d3cb52a74,10
;Gerber Generator version 0.2
M48
INCH,LZ,00.0000
;Holesize 1 = 0.012 INCH
T01C0.012
;Holesize 2 = 0.035 INCH
T02C0.035
;Holesize 3 = 0.035 INCH
T03C0.035
;Holesize 4 = 0.038 INCH
T04C0.038
;Holesize 5 = 0.039 INCH
T05C0.039
;Holesize 6 = 0.047 INCH
T06C0.047
;Holesize 7 = 0.067 INCH
T07C0.067
%
G05
G90
T01
X+019397Y+009198
T02
X+015500Y+012600
X+016500Y+012600
X+017500Y+012600
X+018500Y+012600
X+019500Y+012600
X+020500Y+012600
X+021500Y+012600
X+022500Y+012600
X+023500Y+012600
X+024500Y+012600
X+025500Y+012600
X+026500Y+012600
X+027500Y+012600
X+028500Y+012600
X+029500Y+012600
X+030500Y+012600
X+024500Y+002600
X+023500Y+002600
X+022500Y+002600
X+021500Y+002600
X+020500Y+002600
X+019500Y+002600
X+018500Y+002600
X+017500Y+002600
X+016500Y+002600
X+015500Y+002600
T03
X+009500Y+012600
X+012500Y+012600
X+016000Y+011100
X+016000Y+008100
X+019000Y+011100
X+019000Y+008100
X+020000Y+011100
X+020000Y+008100
X+021000Y+011100
X+021000Y+008100
X+022000Y+011100
X+022000Y+008100
X+023000Y+011100
X+023000Y+008100
X+013500Y+004600
X+016500Y+004600
X+013500Y+005600
X+016500Y+005600
T04
X+002000Y+007100
X+002000Y+008100
X+002000Y+001100
X+002000Y+002100
T05
X+009500Y+011100
X+009500Y+010100
X+012500Y+010100
X+012500Y+011100
T06
X+004720Y+006714
X+007279Y+006714
X+007279Y+008485
X+004720Y+008485
X+004720Y+000714
X+007279Y+000714
X+007279Y+002485
X+004720Y+002485
X+000720Y+003714
X+003279Y+003714
X+003279Y+005485
X+000720Y+005485
X+004720Y+003714
X+007279Y+003714
X+007279Y+005485
X+004720Y+005485
X+008720Y+003714
X+011279Y+003714
X+011279Y+005485
X+008720Y+005485
T07
X+002984Y+011600
X+001015Y+011600
X+006984Y+011600
X+005015Y+011600
M30
